# xmcd
#
# Track frame offsets:
#	150
#	20315
#	38765
#	57119
#	75873
#	91447
#	110593
#	129108
#	149041
#	165052
#	187503
#	203261
#	221731
#
# Disc length: 3148 seconds
#
# Revision: 1
# Processed by: cddbd v1.5.2PL0 Copyright (c) Steve Scherf et al.
# Submitted via: audiograbber 1.83.01
#
DISCID=940c4a0d
DTITLE=Alabama - Southern Drawl
DYEAR=2015
DGENRE=Country
TTITLE0=Southern Drawl
TTITLE1=Wasn't Through Lovin' You Yet
TTITLE2=This Ain't Just a Song
TTITLE3=As Long As There's Love
TTITLE4=Back To the Country
TTITLE5=Hillbilly Wins the Lotto Money
TTITLE6=Come Find Me
TTITLE7=No Bad Days
TTITLE8=One On One
TTITLE9=American Farmer
TTITLE10=It's About Time
TTITLE11=Footstompin' Music
TTITLE12=I Wanna Be There
EXTD=
EXTT0=
EXTT1=
EXTT2=
EXTT3=
EXTT4=
EXTT5=
EXTT6=
EXTT7=
EXTT8=
EXTT9=
EXTT10=
EXTT11=
EXTT12=
PLAYORDER=
